<?xml version="1.0" encoding="UTF-8"?>
<!DOCTYPE svg PUBLIC "-//W3C//DTD SVG 1.1//EN" "http://www.w3.org/Graphics/SVG/1.1/DTD/svg11.dtd">
<!-- Creator: CorelDRAW -->
<svg xmlns="http://www.w3.org/2000/svg" xml:space="preserve" width="1.70666in" height="1.70666in" version="1.1" style="shape-rendering:geometricPrecision; text-rendering:geometricPrecision; image-rendering:optimizeQuality; fill-rule:evenodd; clip-rule:evenodd"
viewBox="0 0 1707 1707"
 xmlns:xlink="http://www.w3.org/1999/xlink">
 <defs>
  <style type="text/css">
   <![CDATA[
    .str0 {stroke:#E6F7DB;stroke-width:6.94488}
    .fil0 {fill:#666666}
    .fil1 {fill:#E6F7DB}
   ]]>
  </style>
 </defs>
 <g id="Layer_x0020_1">
  <metadata id="CorelCorpID_0Corel-Layer"/>
  <path class="fil0" d="M853 980c-41,0 -76,-21 -99,-36 -36,10 -67,21 -69,71l336 0c-1,-50 -32,-61 -69,-71 -22,15 -57,36 -99,36zm-26 218c-72,-6 -138,-32 -192,-73l-252 252c97,127 5,315 -157,315 -171,0 -263,-211 -138,-336 68,-68 180,-76 257,-17l250 -250c-57,-59 -95,-137 -101,-224l-188 0c-12,57 -63,99 -123,99 -69,0 -126,-56 -126,-126 0,-69 57,-126 126,-126 60,0 111,43 123,100l188 0c5,-72 32,-138 73,-192l-252 -252c-77,58 -189,51 -258,-18 -124,-125 -32,-335 139,-335 161,0 255,186 157,315l249 250c59,-57 138,-95 225,-101l0 -188c-57,-12 -100,-63 -100,-123 0,-69 57,-126 126,-126 70,0 126,57 126,126 0,60 -42,111 -99,123l0 188c87,6 165,44 224,101l250 -250c-97,-128 -5,-315 156,-315 172,0 264,211 139,335 -68,69 -180,76 -257,18l-252 252c41,54 67,120 73,192l187 0c13,-57 63,-100 123,-100 70,0 126,57 126,126 0,70 -56,126 -126,126 -60,0 -110,-42 -123,-99l-187 0c-7,87 -44,165 -101,224l250 250c76,-59 189,-51 257,17 125,125 33,335 -139,335 -161,0 -253,-187 -156,-315l-252 -252c-54,42 -120,68 -192,74l0 187c57,13 99,63 99,123 0,70 -56,126 -126,126 -69,0 -126,-56 -126,-126 0,-60 43,-110 100,-123l0 -187zm26 -667c-274,0 -409,334 -215,526 -2,-4 -4,-8 -5,-12 -14,-123 73,-144 119,-155 10,-2 27,-4 30,-11 -26,-22 -45,-57 -47,-103 -7,-14 -12,-37 -4,-71 36,-154 284,-120 245,72 -1,5 -4,9 -7,12 -6,41 -22,71 -43,90 2,7 19,9 29,11 46,11 132,32 118,155 0,4 -2,8 -4,12 194,-191 59,-526 -216,-526zm-207 533c116,107 298,107 415,0 -4,3 -9,4 -14,4l-387 0c-5,0 -10,-1 -14,-4zm207 -969c-40,0 -72,33 -72,73 0,40 32,73 72,73 40,0 73,-33 73,-73 0,-40 -33,-73 -73,-73zm0 146l0 0zm670 525c-40,0 -72,32 -72,72 0,40 32,73 72,73 41,0 73,-33 73,-73 0,-40 -32,-72 -73,-72zm-670 670c-40,0 -72,32 -72,72 0,40 32,73 72,73 40,0 73,-33 73,-73 0,-40 -33,-72 -73,-72zm-597 -597c-1,-98 -145,-95 -145,-1 0,40 32,73 72,73 40,0 73,-33 73,-72zm1153 -527c56,55 147,56 203,1 90,-91 23,-245 -102,-245 -126,0 -190,155 -101,244zm71 1040c-126,0 -190,155 -101,244 55,55 147,55 202,0 91,-90 24,-244 -101,-244zm-1254 0c-124,0 -191,154 -101,244 90,90 244,26 244,-101 0,-78 -65,-143 -143,-143zm71 -1039c89,-92 25,-245 -101,-245 -124,0 -191,154 -101,245 55,55 147,55 202,0zm622 446c-8,-22 -20,-30 -48,-36 -10,7 -18,17 -35,17 -5,0 -10,-1 -17,-4 -15,1 -24,14 -27,40 0,3 -1,7 -3,10 7,43 37,67 65,67 42,1 63,-39 65,-94zm-64 -97c-19,0 -41,6 -57,24 11,-3 28,-5 37,-2 19,-16 36,-17 62,-10 -12,-8 -26,-12 -42,-12zm-1 245l-25 -3 0 0c0,5 -7,12 -10,15 23,9 46,9 69,0l-10 -15c-8,2 -16,3 -24,3z"/>
  <path class="fil1 str0" d="M1596 838c0,-40 -32,-72 -73,-72 -40,0 -72,32 -72,72 0,40 32,73 72,73 41,0 73,-33 73,-73z"/>
  <path class="fil1" d="M853 1581c40,0 73,-33 73,-73 0,-40 -33,-72 -73,-72 -40,0 -72,32 -72,72 0,40 32,73 72,73z"/>
  <path class="fil1 str0" d="M111 838c0,40 32,73 72,73 40,0 73,-33 73,-72 -1,-98 -145,-95 -145,-1z"/>
  <path class="fil1" d="M781 168c0,40 32,73 72,73 40,0 73,-33 73,-73 0,-40 -33,-73 -73,-73 -40,0 -72,33 -72,73z"/>
  <path class="fil1" d="M1047 1068l-387 0c-5,0 -10,-1 -14,-4 116,107 298,107 415,0 -4,3 -9,4 -14,4z"/>
  <path class="fil1" d="M685 1015l336 0c-1,-50 -32,-61 -69,-71 -22,15 -57,36 -99,36 -41,0 -76,-21 -99,-36 -36,10 -67,21 -69,71z"/>
  <path class="fil1" d="M819 919c23,9 46,9 69,0l-10 -15c-8,2 -16,3 -24,3l-25 -3 0 0c0,5 -7,12 -10,15z"/>
  <path class="fil1" d="M854 853c42,1 63,-39 65,-94 -8,-22 -20,-30 -48,-36 -10,7 -18,17 -35,17 -5,0 -10,-1 -17,-4 -15,1 -24,14 -27,40 0,3 -1,7 -3,10 7,43 37,67 65,67z"/>
  <path class="fil1" d="M835 684c19,-16 36,-17 62,-10 -12,-8 -26,-12 -42,-12 -19,0 -41,6 -57,24 11,-3 28,-5 37,-2z"/>
 </g>
</svg>
